<svg xmlns="http://www.w3.org/2000/svg" width="95" height="95"><path d="M24.238 24.647C37.36 11.66 52.502 4.095 68.022 7.878c-12.613-8.83-48.2-12.106-60.44.126s-7.7 48.173-.126 60.154c-3.66-15.51 3.785-30.518 16.782-43.51" fill="#e63f11"/><path d="M39.253 72.824C21.336 68.158 5.437 57.565.895 42.18-.367 57.44 14.522 89.98 31.18 94.39 47.96 98.93 76.856 77.112 83.417 64.5c-11.61 10.97-26.5 13.115-44.163 8.323" fill="#fbc000"/><path d="M72.818 35.748c4.794 17.782 2.523 35.812-8.58 47.29C78.117 76.48 98.8 47.35 94.394 30.704 89.852 13.932 56.54-.066 42.282.56 57.676 5.1 68.15 17.96 72.818 35.744" fill="#f39608"/></svg>