<svg xmlns="http://www.w3.org/2000/svg" width="98" height="98" viewBox="0 0 97.082 97.067" fill="none" stroke="#f39d3a" stroke-width="2"><path d="M25.252 25.656C38.375 12.67 53.516 5.104 69.036 8.887c-12.613-8.83-48.2-12.106-60.44.126s-7.7 48.173-.126 60.154c-3.66-15.51 3.785-30.518 16.782-43.51"/><path d="M40.267 73.833C22.35 69.167 6.45 58.574 1.91 43.19c-1.262 15.26 13.627 47.8 30.284 52.21C48.975 99.938 77.87 78.12 84.43 65.5c-11.61 10.97-26.5 13.115-44.163 8.323"/><path d="M73.832 36.757c4.794 17.782 2.523 35.812-8.58 47.29C79.13 77.5 99.824 48.36 95.408 31.713 90.866 14.94 57.554.943 43.296 1.57 58.7 6.11 69.163 18.97 73.832 36.753"/></svg>