<svg xmlns="http://www.w3.org/2000/svg" width="27" height="27" viewBox="0 0 26.281 26.281"><path d="M13.14 2.336a40.292 40.292 0 0 1 5.256.146 6.772 6.772 0 0 1 2.482.438 5.128 5.128 0 0 1 2.482 2.48 6.772 6.772 0 0 1 .439 2.484c0 1.314.146 1.752.146 5.256a40.291 40.291 0 0 1-.146 5.26 6.772 6.772 0 0 1-.438 2.482 5.128 5.128 0 0 1-2.482 2.482 6.772 6.772 0 0 1-2.48.436c-1.314 0-1.752.146-5.256.146a40.291 40.291 0 0 1-5.26-.146 6.772 6.772 0 0 1-2.484-.439 5.128 5.128 0 0 1-2.48-2.482 6.772 6.772 0 0 1-.438-2.479c0-1.314-.146-1.752-.146-5.256a40.292 40.292 0 0 1 .146-5.256A6.772 6.772 0 0 1 2.92 5.4a5.244 5.244 0 0 1 1.022-1.46A2.468 2.468 0 0 1 5.4 2.92a6.772 6.772 0 0 1 2.482-.438 40.292 40.292 0 0 1 5.256-.146m0-2.336a43.141 43.141 0 0 0-5.4.146A9.014 9.014 0 0 0 4.526.73 5.716 5.716 0 0 0 2.19 2.19 5.716 5.716 0 0 0 .73 4.526a6.653 6.653 0 0 0-.584 3.212A43.141 43.141 0 0 0 0 13.141a43.141 43.141 0 0 0 .146 5.4 9.014 9.014 0 0 0 .584 3.214 5.716 5.716 0 0 0 1.46 2.336 5.716 5.716 0 0 0 2.336 1.46 9.014 9.014 0 0 0 3.212.584 43.141 43.141 0 0 0 5.4.146 43.141 43.141 0 0 0 5.4-.146 9.014 9.014 0 0 0 3.212-.584 6.126 6.126 0 0 0 3.8-3.8 9.014 9.014 0 0 0 .584-3.212c0-1.46.146-1.9.146-5.4a43.141 43.141 0 0 0-.146-5.4 9.014 9.014 0 0 0-.584-3.212 5.716 5.716 0 0 0-1.46-2.336A5.716 5.716 0 0 0 21.755.73a9.014 9.014 0 0 0-3.212-.584A43.141 43.141 0 0 0 13.141 0m0 6.424a6.608 6.608 0 0 0-6.716 6.716 6.716 6.716 0 1 0 6.716-6.716m0 11.1a4.3 4.3 0 0 1-4.38-4.38 4.3 4.3 0 0 1 4.38-4.38 4.3 4.3 0 0 1 4.38 4.38 4.3 4.3 0 0 1-4.38 4.38M20.15 4.526a1.606 1.606 0 1 0 1.606 1.606 1.62 1.62 0 0 0-1.606-1.606" fill="#fff" fill-rule="evenodd"/></svg>