<svg xmlns="http://www.w3.org/2000/svg" width="28" height="41" viewBox="0 0 27.997 40.531" fill="#7d7d7d"><path d="M14 2.6C7.652 2.6 2.606 7.97 2.606 14.645c0 5.21 7.488 16.277 11.394 21.486 3.907-5.21 11.394-16.277 11.394-21.486C25.394 8.134 20.185 2.6 14 2.6m0 37.926l-.977-1.3C12.535 38.575.001 22.626.001 14.8.001 6.67 6.186-.002 14-.002c7.65 0 14 6.674 14 14.813 0 7.813-12.37 23.765-13.022 24.416z"/><path d="M14.002 11.557a3.26 3.26 0 0 0-2.531 5.501 3.26 3.26 0 0 0 5.624-2.245c.012-1.74-1.354-3.18-3.093-3.256m0 9.278c-1.556-.037-3.034-.694-4.104-1.825s-1.645-2.642-1.596-4.198a5.95 5.95 0 0 1 5.7-6.023c1.556.037 3.034.694 4.104 1.825s1.645 2.642 1.596 4.198c-.163 3.255-2.6 6.023-5.7 6.023"/></svg>