<svg xmlns="http://www.w3.org/2000/svg" width="102" height="87" viewBox="0 0 101.491 86.686" fill="#aeaaa6"><path d="M12.145 44.375c-.28-.9.527-1.2 1.272-1.55a96.5 96.5 0 0 0 20.815-13.029 80.26 80.26 0 0 0 12.284-12c.62-.776.993-.62 1.427.155a103.37 103.37 0 0 1 12.9 35.8 171.63 171.63 0 0 1 .9 6.793c.155 1.3 0 1.458-1.3 1.148a98.71 98.71 0 0 0-23.202-2.267 101.1 101.1 0 0 0-17.526 1.985c-.975.328-2.04-.144-2.45-1.086a40.02 40.02 0 0 1-5.119-15.948zm83.662-4.56c-.03-9.306-2.17-17.34-7.042-24.568a32.26 32.26 0 0 0-7.753-8.096 4.21 4.21 0 0 1-1.88-3.242c-.084-1.315.45-2.595 1.447-3.458.575-.577 1.5-.604 2.1-.062a38.41 38.41 0 0 1 7.972 7.228c6.545 7.972 9.833 17.247 10.67 27.453a51.17 51.17 0 0 1-2.418 19.945c-.62 1.923-1.427 2.233-3.164 1.24-.3-.186-.62-.34-.9-.527-1.4-.838-1.613-1.52-1.272-3.1.683-3.1 1.4-6.173 1.954-9.306a24.22 24.22 0 0 0 .277-3.508zm-55.402 46.87l-3.536-.3a6.42 6.42 0 0 1-4.653-2.916 27.76 27.76 0 0 1-4.591-9.958c-.65-2.94-2.348-5.542-4.777-7.32a9.08 9.08 0 0 1-1.3-1.551 8.86 8.86 0 0 1 1.675-1.055c5.43-1.756 11.16-2.4 16.844-1.892.87.062 1.272.5 1.18 1.334-.124 1.148-.186 2.327-.34 3.474-.607 3.678-.417 7.445.558 11.043a9.81 9.81 0 0 0 3.691 5.336c.5.372 1.117 1.18 1.024 1.613a2.4 2.4 0 0 1-1.52 1.3c-1.523.438-3.074.655-4.253.903zM80.64 51.54c6.05-15.48 2.2-27.67-11.664-36.852.465-.9.962-1.954 1.55-2.916.5-.807 1.18-.682 1.923-.248a30.39 30.39 0 0 1 10.7 10.3q8.794 14.378 2.327 30c-.62 1.52-1.086 1.675-2.575.93l-2.26-1.214zM15.403 62.212c-3.2.9-6.018 2.327-9.213 1.24a6.95 6.95 0 0 1-4-2.978C.7 57.93-.446 55.294.172 52.223a7.3 7.3 0 0 1 3.722-5.335c1.706-.87 3.536-1.52 5.584-2.358a41.56 41.56 0 0 0 5.925 17.682zm51.617-.6c.13.458.06.95-.195 1.353s-.67.678-1.14.756c-1.272.4-1.83.03-2.078-1.334-1.024-5.832-1.83-11.695-3.2-17.433a111.33 111.33 0 0 0-11.788-29.035c-.87-1.52-.682-1.923.993-2.45a1.2 1.2 0 0 1 1.644.651 166.47 166.47 0 0 1 9.15 19.512c3 7.848 4.436 16.1 6.018 24.3.222 1.24.377 2.48.594 3.692zm8.22-22.387c.001 2.85-.546 5.67-1.613 8.313-.434 1.055-1.055 1.3-2.14.807-.17-.095-.346-.178-.527-.248-2.1-1.055-2.14-1.117-1.334-3.38a16.13 16.13 0 0 0-5.987-18.3 2.69 2.69 0 0 1 .279-4.56c.53-.17 1.107-.103 1.582.186a20.33 20.33 0 0 1 9.492 14.952c.155.835.186 1.735.248 2.23z"/></svg>