<svg xmlns="http://www.w3.org/2000/svg" width="142" height="121" viewBox="0 0 141.364 120.742" fill="#f39d3a"><path d="M16.92 61.808c-.4-1.253.735-1.685 1.77-2.16A134.31 134.31 0 0 0 47.68 41.5a111.79 111.79 0 0 0 17.11-16.721c.864-1.08 1.383-.864 1.988.216 9.025 15.365 15.12 32.272 17.974 49.86.475 3.154.907 6.308 1.253 9.462.216 1.815 0 2.03-1.815 1.6a137.43 137.43 0 0 0-32.319-3.154A140.83 140.83 0 0 0 27.46 85.53c-1.358.456-2.84-.2-3.413-1.512-3.915-6.818-6.343-14.387-7.126-22.2zm116.526-6.352c-.043-12.962-3.025-24.153-9.808-34.22a44.52 44.52 0 0 0-10.8-11.277 5.87 5.87 0 0 1-.6-9.333A2.14 2.14 0 0 1 115.17.54a53.5 53.5 0 0 1 11.1 10.067c9.117 11.1 13.7 24.023 14.863 38.238a71.29 71.29 0 0 1-3.37 27.782c-.864 2.68-1.988 3.1-4.407 1.728-.432-.26-.864-.475-1.253-.735-1.944-1.167-2.247-2.117-1.772-4.32.95-4.32 1.944-8.6 2.722-12.962a33.66 33.66 0 0 0 .393-4.88zM56.28 120.74l-4.926-.432a8.94 8.94 0 0 1-6.48-4.06 38.65 38.65 0 0 1-6.395-13.87 17.25 17.25 0 0 0-6.654-10.2 12.65 12.65 0 0 1-1.815-2.16 12.34 12.34 0 0 1 2.333-1.469 59.15 59.15 0 0 1 23.461-2.636c1.2.086 1.77.7 1.642 1.858l-.475 4.84c-.846 5.124-.58 10.37.778 15.382.822 3 2.635 5.6 5.142 7.432.7.518 1.555 1.642 1.426 2.247a3.34 3.34 0 0 1-2.117 1.815c-2.117.606-4.277.9-5.92 1.254zm56.038-48.952c8.425-21.56 3.068-38.54-16.246-51.33.648-1.253 1.34-2.722 2.16-4.06.7-1.123 1.642-.95 2.68-.346 6.08 3.475 11.2 8.404 14.906 14.345q12.25 20.026 3.24 41.78c-.864 2.117-1.512 2.333-3.586 1.3l-3.154-1.7zM21.454 86.65c-4.45 1.253-8.382 3.24-12.832 1.728a9.68 9.68 0 0 1-5.574-4.148C.974 80.688-.625 77.016.24 72.738c.467-3.153 2.387-5.905 5.185-7.432 2.376-1.2 4.926-2.117 7.777-3.284a57.9 57.9 0 0 0 8.253 24.63zm71.896-.82a2.33 2.33 0 0 1-1.858 2.938c-1.77.562-2.55.043-2.895-1.858-1.426-8.123-2.55-16.3-4.45-24.282a155.07 155.07 0 0 0-16.419-40.442c-1.2-2.117-.95-2.68 1.383-3.413.42-.206.9-.225 1.346-.053s.78.52.944.96c4.83 8.775 9.088 17.853 12.746 27.177 4.2 10.93 6.18 22.424 8.382 33.83l.82 5.142zm11.45-31.194a30.88 30.88 0 0 1-2.246 11.58c-.6 1.47-1.47 1.815-2.98 1.123a5.41 5.41 0 0 0-.735-.346c-2.938-1.47-2.98-1.555-1.858-4.7 3.155-9.406-.235-19.77-8.34-25.492-1.056-.75-1.65-2-1.57-3.284s.82-2.453 1.96-3.067a2.67 2.67 0 0 1 2.2.259 28.32 28.32 0 0 1 13.225 20.825c.216 1.166.26 2.42.345 3.1z"/></svg>