<svg xmlns="http://www.w3.org/2000/svg" width="42" height="30" viewBox="0 0 41.729 29.894" fill="#7d7d7d"><path d="M34.4 20.527c-.384-.122-.788-.173-1.2-.15a1.12 1.12 0 0 1-.595-.15v3.718a3.02 3.02 0 0 1-3.123 2.975h-18.14s-3.123-1.2-2.528-2.677v-4.018c-.744 0-.892 0-1.04.15-.446 0-.744.15-1.2.15a2.96 2.96 0 0 0-.744.15v3.867a5.5 5.5 0 0 0 5.652 5.354h18.442a5.5 5.5 0 0 0 5.652-5.354v-3.867c-.305.023-.6-.028-.892-.15M20.864 0c-5.652 0-10.4.744-13.98 2.38-3.272 1.487-5.5 3.57-6.247 5.8-.807 2.098-.86 4.4-.15 6.544a5.05 5.05 0 0 0 4.61 3.272 2.53 2.53 0 0 0 1.041-.149c.446 0 .744-.15 1.2-.15 2.23-.446 4.313-.744 5.8-1.2 1.996-.556 3.462-2.257 3.718-4.313a6.13 6.13 0 0 0-.149-1.785v-.15c1.347-.423 2.753-.624 4.164-.595 2.23 0 3.272.15 4.164.595v.15c0 .446-.15 1.04-.15 1.785a4.94 4.94 0 0 0 3.718 4.313c1.487.446 3.57.744 5.8 1.2.446 0 .744.15 1.2.15.3 0 .744.15 1.04.15a4.77 4.77 0 0 0 4.611-3.272 9.64 9.64 0 0 0-.149-6.544c-.744-2.23-2.975-4.313-6.246-5.8C31.125.744 26.514 0 20.863 0m0 2.38c11.6 0 16.806 3.718 17.847 6.544a6.72 6.72 0 0 1 .149 4.908c-.308.973-1.2 1.635-2.23 1.636h-.595a65.5 65.5 0 0 1-6.693-1.339 2.62 2.62 0 0 1-1.785-2.082 14.58 14.58 0 0 0 .15-2.38 2.9 2.9 0 0 0-1.785-1.785 17.59 17.59 0 0 0-10.113 0 2.6 2.6 0 0 0-1.785 1.785 14.47 14.47 0 0 0 .149 2.38 2.62 2.62 0 0 1-1.785 2.082c-1.636.446-4.016.892-6.693 1.34H5.1a2.34 2.34 0 0 1-2.23-1.636 8.88 8.88 0 0 1 .149-4.908c.9-2.827 6.244-6.545 17.845-6.545"/></svg>