<svg xmlns="http://www.w3.org/2000/svg" width="27" height="22" viewBox="0 0 26.281 21.316"><path d="M8.322 21.317c4.077.037 7.998-1.566 10.88-4.45s4.487-6.804 4.45-10.88v-.73a11.87 11.87 0 0 0 2.628-2.774 12.12 12.12 0 0 1-3.066.876 5.68 5.68 0 0 0 2.336-2.92 13.39 13.39 0 0 1-3.358 1.314C21.194.626 19.756-.012 18.25 0c-2.963.046-5.354 2.437-5.4 5.4-.033.395.017.793.146 1.168A15.1 15.1 0 0 1 1.9.876a5.59 5.59 0 0 0-.73 2.774A5.8 5.8 0 0 0 3.5 8.176a4.92 4.92 0 0 1-2.482-.73C1.016 10.027 2.86 12.24 5.4 12.7a4.5 4.5 0 0 1-1.46.146c-.346.023-.694-.027-1.02-.146a5.53 5.53 0 0 0 5.11 3.8c-1.92 1.5-4.28 2.32-6.716 2.336A4.04 4.04 0 0 1 0 18.689a13.78 13.78 0 0 0 8.322 2.628" fill="#fff" fill-rule="evenodd"/></svg>